Coordinates
version=1
nRows=8
nColumns=34
inDegrees=yes

Units are S.I. units (second, meters, Newtons, ...)
If the header above contains a line with 'inDegrees', this indicates whether rotational values are in degrees (yes) or radians (no).

endheader
time	pelvis_tilt	pelvis_list	pelvis_rotation	pelvis_tx	pelvis_ty	pelvis_tz	hip_flexion_l	hip_adduction_l	hip_rotation_l	hip_flexion_r	hip_adduction_r	hip_rotation_r	knee_angle_l_beta	knee_angle_r_beta	knee_angle_l	knee_angle_r	ankle_angle_l	ankle_angle_r	subtalar_angle_l	subtalar_angle_r	mtp_angle_l	mtp_angle_r	lumbar_ext	lumbar_bend	lumbar_rota	shoulder_flexion_r	shoulder_adduction_r	shoulder_rotation_r	elbow_flexion_r	shoulder_flexion_l	shoulder_adduction_l	shoulder_rotation_l	elbow_flexion_l
      0.17000000	     10.90481262	      8.12037176	     -4.13671122	     -0.03044281	      0.83801112	     -0.22437823	      4.48592112	     13.56378198	     -3.02406394	    -18.95841868	    -14.97676463	    -12.11556906	      0.15769671	      0.80900744	     -9.03535568	    -46.35271205	     -0.49550312	    -26.31556424	      0.77618211	     14.02077842	    -18.91930706	     10.17161973	    -20.30663610	    -10.44980647	     -4.78484197	      2.76326619	     -0.29343267	     10.02874476	     28.45871526	    -14.80284777	      1.14579322	    -17.26168161	     37.35375034
      0.18000000	     10.80877223	      8.66626749	     -3.92742400	     -0.01864192	      0.83883878	     -0.22615757	      3.91460951	     14.33343861	     -2.81171180	    -17.44854917	    -16.15210630	    -12.76521528	      0.16377320	      0.85584853	     -9.38351321	    -49.03650842	      0.06138580	    -27.07146439	      0.97331745	     12.46012520	    -18.57541704	      9.49649112	    -20.10634982	    -10.90968052	     -5.42700160	      2.60177019	     -0.24750851	      9.89285462	     28.46965986	    -14.87165209	      0.92091179	    -17.38856801	     37.69067120
      0.19000000	     10.62487150	      8.88096945	     -3.65109690	     -0.00761856	      0.83962260	     -0.22786966	      3.45027992	     14.71858116	     -2.49297135	    -15.62666960	    -16.80066787	    -13.01313715	      0.17019741	      0.90662549	     -9.75159302	    -51.94581416	      0.73420069	    -26.29422027	      1.26777139	     11.00648388	    -17.72131739	      3.83497997	    -19.91378512	    -11.01134338	     -6.22267189	      2.76873967	     -0.24260576	     10.40550334	     28.07108482	    -14.93010248	      0.79418078	    -17.89920498	     38.05048677
      0.20000000	     10.43732488	      9.08386548	     -3.38878304	      0.00315678	      0.84038778	     -0.22953816	      2.93975537	     15.08438381	     -2.18418121	    -13.76892941	    -17.43045969	    -13.24144446	      0.17492393	      0.95326301	    -10.02240266	    -54.61794714	      1.34142064	    -25.03321474	      1.57059693	      9.74260452	    -17.29569529	      0.92174943	    -19.75491701	    -11.09198896	     -6.82105116	      2.80735050	     -0.26452608	     10.58141907	     27.88699532	    -14.85418902	      0.59699863	    -18.15852295	     38.39426685
      0.21000000	     10.28168713	      9.23869027	     -3.05817457	      0.01344563	      0.84124848	     -0.23137009	      2.31275179	     15.41900493	     -1.89051325	    -11.91234310	    -17.91370188	    -13.39267194	      0.17627760	      0.99497373	    -10.09996264	    -57.00779525	      2.05404279	    -23.49006606	      1.76357961	      8.49369299	    -17.03136313	      0.40366139	    -19.73397511	    -11.10350392	     -7.36909186	      2.82521482	     -0.32107983	     10.55741917	     27.83411782	    -14.62929504	      0.39471501	    -18.25291544	     38.76632313
      0.22000000	     10.09948050	      9.18122509	     -2.76296539	      0.02328668	      0.84210218	     -0.23294886	      1.70630627	     15.49567460	     -1.48206880	     -9.92302044	    -18.10468640	    -13.39549241	      0.17707254	      1.03440090	    -10.14550949	    -59.26680564	      2.71302962	    -21.32918616	      1.92907736	      7.65366783	    -16.75360813	     -0.46380546	    -19.70189221	    -10.91076928	     -7.83809294	      2.94348342	     -0.35192452	     10.71392757	     27.68664896	    -14.34097660	      0.20321510	    -18.38701146	     39.07682019
      0.23000000	     10.08725332	      8.96821280	     -2.50638821	      0.03286346	      0.84333733	     -0.23440611	      0.80112780	     15.41431081	     -0.96324900	     -8.11987604	    -18.00469968	    -13.28632427	      0.17355127	      1.06705705	     -9.94375515	    -61.13786557	      3.33545306	    -18.88540162	      2.03029805	      6.91507999	    -16.55913602	     -0.85048043	    -19.87240440	    -10.54120290	     -8.24143638	      3.09412319	     -0.43269643	     10.83155874	     27.57418471	    -13.99454313	      0.00620642	    -18.41751901	     39.35168076
      0.24000000	      9.74025116	      8.79967395	     -2.27535119	      0.04173956	      0.84388285	     -0.23586585	      0.42697017	     15.36140281	     -0.51671816	     -5.69476441	    -17.92696535	    -13.04299624	      0.17318368	      1.10453186	     -9.92269376	    -63.28501367	      3.78200679	    -15.40015428	      1.95146029	      7.06539665	    -16.21338409	     -6.46728177	    -19.73480604	    -10.23719837	     -8.94041784	      3.68144451	     -0.50822900	     12.01833329	     26.80284880	    -13.84178718	     -0.04636335	    -19.07298511	     39.97970164
